<svg width="64" height="64" viewBox="0 0 64 64" fill="none" xmlns="http://www.w3.org/2000/svg">
<rect width="64" height="64" fill="white"/>
<path d="M18.1605 50V13.6364H32.7202C35.3954 13.6364 37.6267 14.0329 39.4141 14.826C41.2015 15.6191 42.545 16.7199 43.4446 18.1286C44.3442 19.5253 44.794 21.1352 44.794 22.9581C44.794 24.3786 44.5099 25.6274 43.9418 26.7045C43.3736 27.7699 42.5923 28.6458 41.598 29.3324C40.6155 30.0071 39.491 30.4865 38.2244 30.7706V31.1257C39.6094 31.1849 40.9055 31.5755 42.1129 32.2976C43.3322 33.0196 44.3205 34.0317 45.0781 35.3338C45.8357 36.6241 46.2145 38.1629 46.2145 39.9503C46.2145 41.8797 45.7351 43.602 44.7763 45.1172C43.8293 46.6205 42.4266 47.8101 40.5682 48.6861C38.7098 49.562 36.4193 50 33.6967 50H18.1605ZM25.8487 43.7145H32.1165C34.259 43.7145 35.8215 43.3061 36.804 42.4893C37.7865 41.6607 38.2777 40.5599 38.2777 39.1868C38.2777 38.1806 38.035 37.2929 37.5497 36.5234C37.0644 35.754 36.3719 35.1503 35.4723 34.7124C34.5845 34.2744 33.5251 34.0554 32.294 34.0554H25.8487V43.7145ZM25.8487 28.853H31.5483C32.6018 28.853 33.5369 28.6695 34.3537 28.3026C35.1823 27.9238 35.8333 27.3911 36.3068 26.7045C36.7921 26.018 37.0348 25.1953 37.0348 24.2365C37.0348 22.9226 36.5672 21.8632 35.6321 21.0582C34.7088 20.2533 33.3949 19.8509 31.6903 19.8509H25.8487V28.853Z" fill="#FE0006"/>
</svg>
